<svg width="206" height="108" viewBox="0 0 206 108" fill="none" xmlns="http://www.w3.org/2000/svg">
<path d="M111.944 65.1621C110.363 64.8701 108.753 64.6658 107.187 64.2716C102.327 63.06 98.1932 60.5782 94.8134 56.841C92.4346 54.2133 90.7519 51.1769 90.2442 47.6441C89.1853 40.1551 90.4473 33.1187 94.4508 26.5932C97.5405 21.5714 101.181 16.9875 104.982 12.5058C107.941 9.01678 110.871 5.46937 113.787 1.93657C114.149 1.48402 114.526 1.27964 115.121 1.27964C120.386 1.30884 125.666 1.29424 130.932 1.29424C131.164 1.29424 131.411 1.29424 131.86 1.29424C125.739 8.46204 119.748 15.4839 113.67 22.6079C119.067 21.002 123.795 22.4035 128.219 25.2064C134.384 29.1187 137.242 34.9873 137.764 42.1405C138.127 47.0017 137.213 51.571 134.558 55.717C132.586 58.8118 129.786 60.8994 126.566 62.4906C123.737 63.8775 120.749 64.6804 117.63 65.0307C117.514 65.0453 117.413 65.1037 117.297 65.1475C115.527 65.1621 113.729 65.1621 111.944 65.1621ZM114.178 34.1406C109.058 34.0384 104.663 38.1551 104.576 43.8193C104.503 49.0601 108.391 53.279 113.424 53.4688C119.444 53.7024 123.563 49.4689 123.665 44.1405C123.781 38.5347 119.719 34.2428 114.178 34.1406Z" fill="white"/>
<path d="M45.7851 63.9788C51.8774 56.8548 57.8536 49.833 63.8879 42.7674C57.7376 44.4462 52.4866 42.6068 47.7288 38.9718C43.0871 35.439 40.7227 30.5486 39.9684 24.8114C39.4607 20.9428 39.7508 17.1472 41.0853 13.4685C42.913 8.43202 46.4233 5.0306 51.1956 2.78245C55.6343 0.680286 60.2905 -0.108026 65.1498 0.242335C71.5612 0.694885 77.2183 2.94303 81.8601 7.52692C85.5009 11.1327 87.5462 15.4684 87.7058 20.6217C87.8508 25.118 87.4447 29.5705 85.6895 33.7748C84.326 37.0594 82.3678 40.0229 80.4095 42.9718C77.8421 46.8549 74.7089 50.271 71.7643 53.8476C69.1098 57.0884 66.3973 60.3 63.6993 63.5117C63.4817 63.7744 63.0755 64.0226 62.7564 64.0226C57.2734 64.0518 51.7758 64.0518 46.2928 64.0372C46.1767 64.0372 46.0607 64.008 45.7851 63.9788ZM63.5252 11.9502C57.7666 12.0378 53.8501 16.0524 53.9371 21.7311C54.0242 27.0449 58.2307 31.4828 64.1344 31.2055C69.0228 30.9719 73.0988 26.6216 73.0263 21.3516C72.9537 15.8626 68.9067 11.8626 63.5252 11.9502Z" fill="white"/>
<path d="M165.266 64.0092C160.552 64.0092 155.896 64.0092 151.153 64.0092C151.153 49.4838 151.153 35.0023 151.153 20.2871C147.657 22.5499 144.321 24.7104 140.883 26.944C140.854 26.6082 140.839 26.3892 140.839 26.1848C140.839 21.9513 140.854 17.7178 140.825 13.4843C140.825 13.0171 140.97 12.7397 141.361 12.4916C146.975 8.87118 152.574 5.23618 158.173 1.60119C158.347 1.4844 158.565 1.35302 158.753 1.35302C160.9 1.33842 163.047 1.33842 165.266 1.33842C165.266 22.2579 165.266 43.119 165.266 64.0092Z" fill="white"/>
<path d="M13.1603 96.9629V100.162H3.13882V96.9629H13.1603ZM4.465 80.2559V100.162H0.363434V80.2559H4.465ZM22.4544 100.436C21.3059 100.436 20.276 100.253 19.3645 99.8887C18.4531 99.515 17.6783 99 17.0403 98.3438C16.4114 97.6875 15.9283 96.9264 15.5911 96.0605C15.2539 95.1855 15.0852 94.2559 15.0852 93.2715V92.7246C15.0852 91.6035 15.2447 90.5781 15.5637 89.6484C15.8828 88.7188 16.3385 87.9121 16.9309 87.2285C17.5325 86.5449 18.2617 86.0208 19.1184 85.6562C19.9752 85.2826 20.9414 85.0957 22.0169 85.0957C23.065 85.0957 23.9947 85.2689 24.8059 85.6152C25.6171 85.9616 26.2962 86.4538 26.843 87.0918C27.399 87.7298 27.8183 88.4954 28.1009 89.3887C28.3834 90.2728 28.5247 91.2572 28.5247 92.3418V93.9824H16.7669V91.3574H24.6555V91.0566C24.6555 90.5098 24.5553 90.0221 24.3548 89.5938C24.1634 89.1562 23.8717 88.8099 23.4798 88.5547C23.0878 88.2995 22.5865 88.1719 21.9759 88.1719C21.4563 88.1719 21.0097 88.2858 20.636 88.5137C20.2623 88.7415 19.957 89.0605 19.72 89.4707C19.4921 89.8809 19.319 90.3639 19.2005 90.9199C19.0911 91.4668 19.0364 92.0684 19.0364 92.7246V93.2715C19.0364 93.8639 19.1184 94.4108 19.2825 94.9121C19.4557 95.4134 19.6972 95.8464 20.0071 96.2109C20.3261 96.5755 20.7089 96.8581 21.1555 97.0586C21.6113 97.2591 22.1262 97.3594 22.7005 97.3594C23.4114 97.3594 24.0722 97.2227 24.6829 96.9492C25.3027 96.6667 25.8359 96.2428 26.2825 95.6777L28.1966 97.7559C27.8867 98.2025 27.4628 98.6309 26.9251 99.041C26.3964 99.4512 25.7584 99.7884 25.011 100.053C24.2636 100.308 23.4114 100.436 22.4544 100.436ZM31.1469 79.1621H35.0844V96.7715L34.6879 100.162H31.1469V79.1621ZM44.4496 92.6152V92.9023C44.4496 94.0052 44.3311 95.0169 44.0941 95.9375C43.8663 96.8581 43.5108 97.6556 43.0277 98.3301C42.5447 98.9954 41.9431 99.515 41.223 99.8887C40.5121 100.253 39.6736 100.436 38.7074 100.436C37.8051 100.436 37.0212 100.253 36.3559 99.8887C35.6996 99.5241 35.1482 99.0091 34.7016 98.3438C34.2549 97.6784 33.8949 96.8991 33.6215 96.0059C33.348 95.1126 33.143 94.1374 33.0062 93.0801V92.4512C33.143 91.3939 33.348 90.4186 33.6215 89.5254C33.8949 88.6322 34.2549 87.8529 34.7016 87.1875C35.1482 86.5221 35.6996 86.0072 36.3559 85.6426C37.0121 85.278 37.7868 85.0957 38.6801 85.0957C39.6553 85.0957 40.503 85.2826 41.223 85.6562C41.9522 86.0208 42.5538 86.5404 43.0277 87.2148C43.5108 87.8802 43.8663 88.6732 44.0941 89.5938C44.3311 90.5052 44.4496 91.5124 44.4496 92.6152ZM40.5121 92.9023V92.6152C40.5121 92.0137 40.4665 91.4486 40.3754 90.9199C40.2934 90.3822 40.1475 89.9128 39.9379 89.5117C39.7283 89.1016 39.4411 88.778 39.0766 88.541C38.7211 88.304 38.2608 88.1855 37.6957 88.1855C37.1579 88.1855 36.7022 88.2767 36.3285 88.459C35.9548 88.6413 35.6449 88.8965 35.3988 89.2246C35.1618 89.5527 34.9841 89.9447 34.8656 90.4004C34.7471 90.847 34.6742 91.3392 34.6469 91.877V93.668C34.6742 94.388 34.7927 95.026 35.0023 95.582C35.2211 96.1289 35.5492 96.5618 35.9867 96.8809C36.4333 97.1908 37.0121 97.3457 37.723 97.3457C38.279 97.3457 38.7393 97.2363 39.1039 97.0176C39.4685 96.7988 39.751 96.4889 39.9516 96.0879C40.1612 95.6868 40.307 95.2174 40.3891 94.6797C40.4711 94.1328 40.5121 93.5404 40.5121 92.9023ZM55.2612 96.8262V90.2363C55.2612 89.7624 55.1838 89.3568 55.0288 89.0195C54.8739 88.6732 54.6323 88.4043 54.3042 88.2129C53.9852 88.0215 53.5705 87.9258 53.0601 87.9258C52.6226 87.9258 52.2443 88.0033 51.9253 88.1582C51.6063 88.304 51.3602 88.5182 51.187 88.8008C51.0138 89.0742 50.9273 89.3978 50.9273 89.7715H46.9898C46.9898 89.1426 47.1356 88.5456 47.4273 87.9805C47.7189 87.4154 48.1428 86.9186 48.6987 86.4902C49.2547 86.0527 49.9155 85.7109 50.6812 85.4648C51.4559 85.2188 52.3218 85.0957 53.2788 85.0957C54.4273 85.0957 55.4481 85.2871 56.3413 85.6699C57.2346 86.0527 57.9364 86.627 58.4468 87.3926C58.9663 88.1582 59.2261 89.1152 59.2261 90.2637V96.5938C59.2261 97.4049 59.2762 98.0703 59.3765 98.5898C59.4767 99.1003 59.6226 99.5469 59.814 99.9297V100.162H55.8355C55.6441 99.7611 55.4982 99.2598 55.398 98.6582C55.3068 98.0475 55.2612 97.4368 55.2612 96.8262ZM55.7808 91.1523L55.8081 93.3809H53.6069C53.0874 93.3809 52.6362 93.4401 52.2534 93.5586C51.8706 93.6771 51.5562 93.8457 51.3101 94.0645C51.064 94.2741 50.8817 94.5202 50.7632 94.8027C50.6538 95.0853 50.5991 95.3952 50.5991 95.7324C50.5991 96.0697 50.6766 96.375 50.8316 96.6484C50.9865 96.9128 51.2098 97.1224 51.5015 97.2773C51.7931 97.4232 52.1349 97.4961 52.5269 97.4961C53.1193 97.4961 53.6343 97.3776 54.0718 97.1406C54.5093 96.9036 54.8465 96.612 55.0835 96.2656C55.3296 95.9193 55.4572 95.5911 55.4663 95.2812L56.5054 96.9492C56.3596 97.3229 56.159 97.7103 55.9038 98.1113C55.6577 98.5124 55.3433 98.8906 54.9605 99.2461C54.5777 99.5924 54.1174 99.8796 53.5796 100.107C53.0418 100.326 52.4038 100.436 51.6655 100.436C50.7267 100.436 49.8745 100.249 49.1089 99.875C48.3524 99.4922 47.7508 98.9681 47.3042 98.3027C46.8667 97.6283 46.648 96.8626 46.648 96.0059C46.648 95.2311 46.7938 94.543 47.0855 93.9414C47.3771 93.3398 47.8055 92.834 48.3706 92.4238C48.9448 92.0046 49.6603 91.6901 50.5171 91.4805C51.3739 91.2617 52.3674 91.1523 53.4976 91.1523H55.7808ZM66.4967 88.5273V100.162H62.5592V85.3691H66.2506L66.4967 88.5273ZM65.9225 92.2461H64.8561C64.8561 91.1523 64.9974 90.168 65.2799 89.293C65.5625 88.4089 65.959 87.6569 66.4694 87.0371C66.9798 86.4082 67.5859 85.9297 68.2877 85.6016C68.9987 85.2643 69.7916 85.0957 70.6666 85.0957C71.3593 85.0957 71.9928 85.196 72.567 85.3965C73.1412 85.597 73.6334 85.916 74.0436 86.3535C74.4629 86.791 74.7819 87.3698 75.0006 88.0898C75.2285 88.8099 75.3424 89.6895 75.3424 90.7285V100.162H71.3776V90.7148C71.3776 90.0586 71.2864 89.5482 71.1041 89.1836C70.9218 88.819 70.653 88.5638 70.2975 88.418C69.9511 88.263 69.5228 88.1855 69.0123 88.1855C68.4837 88.1855 68.0234 88.2904 67.6315 88.5C67.2487 88.7096 66.9297 89.0013 66.6744 89.375C66.4284 89.7396 66.2415 90.168 66.1139 90.6602C65.9863 91.1523 65.9225 91.681 65.9225 92.2461ZM78.0877 92.916V92.6289C78.0877 91.5443 78.2426 90.5462 78.5525 89.6348C78.8624 88.7142 79.3136 87.9167 79.906 87.2422C80.4985 86.5677 81.2276 86.0436 82.0935 85.6699C82.9594 85.2871 83.9529 85.0957 85.074 85.0957C86.1951 85.0957 87.1931 85.2871 88.0681 85.6699C88.9431 86.0436 89.6768 86.5677 90.2693 87.2422C90.8709 87.9167 91.3266 88.7142 91.6365 89.6348C91.9464 90.5462 92.1013 91.5443 92.1013 92.6289V92.916C92.1013 93.9915 91.9464 94.9896 91.6365 95.9102C91.3266 96.8216 90.8709 97.6191 90.2693 98.3027C89.6768 98.9772 88.9477 99.5013 88.0818 99.875C87.2159 100.249 86.2224 100.436 85.1013 100.436C83.9802 100.436 82.9822 100.249 82.1072 99.875C81.2413 99.5013 80.5076 98.9772 79.906 98.3027C79.3136 97.6191 78.8624 96.8216 78.5525 95.9102C78.2426 94.9896 78.0877 93.9915 78.0877 92.916ZM82.0252 92.6289V92.916C82.0252 93.5358 82.0798 94.1146 82.1892 94.6523C82.2986 95.1901 82.4718 95.6641 82.7087 96.0742C82.9548 96.4753 83.2739 96.7897 83.6658 97.0176C84.0577 97.2454 84.5362 97.3594 85.1013 97.3594C85.6482 97.3594 86.1176 97.2454 86.5095 97.0176C86.9015 96.7897 87.2159 96.4753 87.4529 96.0742C87.6899 95.6641 87.863 95.1901 87.9724 94.6523C88.0909 94.1146 88.1502 93.5358 88.1502 92.916V92.6289C88.1502 92.0273 88.0909 91.4622 87.9724 90.9336C87.863 90.3958 87.6853 89.9219 87.4392 89.5117C87.2022 89.0924 86.8878 88.7643 86.4959 88.5273C86.1039 88.2904 85.63 88.1719 85.074 88.1719C84.518 88.1719 84.044 88.2904 83.6521 88.5273C83.2693 88.7643 82.9548 89.0924 82.7087 89.5117C82.4718 89.9219 82.2986 90.3958 82.1892 90.9336C82.0798 91.4622 82.0252 92.0273 82.0252 92.6289ZM98.7567 88.5273V100.162H94.8192V85.3691H98.5106L98.7567 88.5273ZM98.1825 92.2461H97.1161C97.1161 91.1523 97.2574 90.168 97.5399 89.293C97.8225 88.4089 98.219 87.6569 98.7294 87.0371C99.2398 86.4082 99.8459 85.9297 100.548 85.6016C101.259 85.2643 102.052 85.0957 102.927 85.0957C103.619 85.0957 104.253 85.196 104.827 85.3965C105.401 85.597 105.893 85.916 106.304 86.3535C106.723 86.791 107.042 87.3698 107.261 88.0898C107.488 88.8099 107.602 89.6895 107.602 90.7285V100.162H103.638V90.7148C103.638 90.0586 103.546 89.5482 103.364 89.1836C103.182 88.819 102.913 88.5638 102.557 88.418C102.211 88.263 101.783 88.1855 101.272 88.1855C100.744 88.1855 100.283 88.2904 99.8915 88.5C99.5087 88.7096 99.1897 89.0013 98.9344 89.375C98.6884 89.7396 98.5015 90.168 98.3739 90.6602C98.2463 91.1523 98.1825 91.681 98.1825 92.2461ZM113.096 79.1621V81.2402C113.096 81.8327 112.982 82.4434 112.754 83.0723C112.535 83.7012 112.239 84.2982 111.865 84.8633C111.492 85.4193 111.081 85.8932 110.635 86.2852L108.789 85.2188C109.126 84.681 109.413 84.0977 109.65 83.4688C109.887 82.8307 110.006 82.0924 110.006 81.2539V79.1621H113.096ZM121.651 96.0742C121.651 95.7917 121.569 95.5365 121.405 95.3086C121.241 95.0807 120.936 94.8711 120.489 94.6797C120.052 94.4792 119.418 94.2969 118.589 94.1328C117.842 93.9688 117.144 93.7637 116.497 93.5176C115.859 93.2624 115.303 92.957 114.829 92.6016C114.364 92.2461 114 91.8268 113.735 91.3438C113.471 90.8516 113.339 90.291 113.339 89.6621C113.339 89.0423 113.471 88.459 113.735 87.9121C114.009 87.3652 114.396 86.8822 114.898 86.4629C115.408 86.0345 116.028 85.7018 116.757 85.4648C117.495 85.2188 118.325 85.0957 119.245 85.0957C120.53 85.0957 121.633 85.3008 122.554 85.7109C123.484 86.1211 124.194 86.6862 124.687 87.4062C125.188 88.1172 125.439 88.9284 125.439 89.8398H121.501C121.501 89.457 121.419 89.1152 121.255 88.8145C121.1 88.5046 120.854 88.263 120.517 88.0898C120.189 87.9076 119.76 87.8164 119.232 87.8164C118.794 87.8164 118.416 87.8939 118.097 88.0488C117.778 88.1947 117.532 88.3952 117.359 88.6504C117.194 88.8965 117.112 89.1699 117.112 89.4707C117.112 89.6986 117.158 89.9036 117.249 90.0859C117.349 90.2591 117.509 90.4186 117.728 90.5645C117.946 90.7103 118.229 90.847 118.575 90.9746C118.931 91.0931 119.368 91.2025 119.888 91.3027C120.954 91.5215 121.907 91.8086 122.745 92.1641C123.584 92.5104 124.249 92.9844 124.741 93.5859C125.234 94.1784 125.48 94.9577 125.48 95.9238C125.48 96.5801 125.334 97.1816 125.042 97.7285C124.75 98.2754 124.331 98.7539 123.784 99.1641C123.237 99.5651 122.581 99.8796 121.816 100.107C121.059 100.326 120.207 100.436 119.259 100.436C117.883 100.436 116.716 100.189 115.759 99.6973C114.811 99.2051 114.091 98.5807 113.599 97.8242C113.116 97.0586 112.874 96.2747 112.874 95.4727H116.607C116.625 96.0104 116.762 96.4434 117.017 96.7715C117.281 97.0996 117.614 97.3366 118.015 97.4824C118.425 97.6283 118.867 97.7012 119.341 97.7012C119.851 97.7012 120.275 97.6328 120.612 97.4961C120.95 97.3503 121.205 97.1589 121.378 96.9219C121.56 96.6758 121.651 96.3932 121.651 96.0742ZM143.767 93.0664H138.695V89.8672H143.767C144.551 89.8672 145.189 89.7396 145.681 89.4844C146.173 89.2201 146.533 88.8555 146.761 88.3906C146.989 87.9258 147.103 87.4017 147.103 86.8184C147.103 86.2259 146.989 85.6745 146.761 85.1641C146.533 84.6536 146.173 84.2435 145.681 83.9336C145.189 83.6237 144.551 83.4688 143.767 83.4688H140.117V100.162H136.015V80.2559H143.767C145.326 80.2559 146.661 80.5384 147.773 81.1035C148.894 81.6595 149.751 82.4297 150.343 83.4141C150.936 84.3984 151.232 85.5241 151.232 86.791C151.232 88.0762 150.936 89.1882 150.343 90.127C149.751 91.0658 148.894 91.7904 147.773 92.3008C146.661 92.8112 145.326 93.0664 143.767 93.0664ZM162.946 96.6211V85.3691H166.883V100.162H163.178L162.946 96.6211ZM163.383 93.5859L164.545 93.5586C164.545 94.543 164.431 95.459 164.204 96.3066C163.976 97.1452 163.634 97.8743 163.178 98.4941C162.722 99.1048 162.148 99.5833 161.456 99.9297C160.763 100.267 159.947 100.436 159.008 100.436C158.288 100.436 157.623 100.335 157.012 100.135C156.411 99.9251 155.891 99.6016 155.454 99.1641C155.025 98.7174 154.688 98.1478 154.442 97.4551C154.205 96.7533 154.086 95.9102 154.086 94.9258V85.3691H158.024V94.9531C158.024 95.3906 158.074 95.7598 158.174 96.0605C158.284 96.3613 158.434 96.6074 158.625 96.7988C158.817 96.9902 159.04 97.127 159.295 97.209C159.56 97.291 159.851 97.332 160.17 97.332C160.982 97.332 161.62 97.168 162.084 96.8398C162.558 96.5117 162.891 96.0651 163.082 95.5C163.283 94.9258 163.383 94.2878 163.383 93.5859ZM174.427 79.1621V100.162H170.476V79.1621H174.427ZM186.059 96.0742C186.059 95.7917 185.977 95.5365 185.813 95.3086C185.649 95.0807 185.344 94.8711 184.897 94.6797C184.46 94.4792 183.826 94.2969 182.997 94.1328C182.249 93.9688 181.552 93.7637 180.905 93.5176C180.267 93.2624 179.711 92.957 179.237 92.6016C178.772 92.2461 178.408 91.8268 178.143 91.3438C177.879 90.8516 177.747 90.291 177.747 89.6621C177.747 89.0423 177.879 88.459 178.143 87.9121C178.417 87.3652 178.804 86.8822 179.305 86.4629C179.816 86.0345 180.436 85.7018 181.165 85.4648C181.903 85.2188 182.732 85.0957 183.653 85.0957C184.938 85.0957 186.041 85.3008 186.962 85.7109C187.891 86.1211 188.602 86.6862 189.094 87.4062C189.596 88.1172 189.846 88.9284 189.846 89.8398H185.909C185.909 89.457 185.827 89.1152 185.663 88.8145C185.508 88.5046 185.262 88.263 184.925 88.0898C184.596 87.9076 184.168 87.8164 183.639 87.8164C183.202 87.8164 182.824 87.8939 182.505 88.0488C182.186 88.1947 181.94 88.3952 181.766 88.6504C181.602 88.8965 181.52 89.1699 181.52 89.4707C181.52 89.6986 181.566 89.9036 181.657 90.0859C181.757 90.2591 181.917 90.4186 182.135 90.5645C182.354 90.7103 182.637 90.847 182.983 90.9746C183.339 91.0931 183.776 91.2025 184.296 91.3027C185.362 91.5215 186.315 91.8086 187.153 92.1641C187.992 92.5104 188.657 92.9844 189.149 93.5859C189.641 94.1784 189.887 94.9577 189.887 95.9238C189.887 96.5801 189.742 97.1816 189.45 97.7285C189.158 98.2754 188.739 98.7539 188.192 99.1641C187.645 99.5651 186.989 99.8796 186.223 100.107C185.467 100.326 184.615 100.436 183.667 100.436C182.29 100.436 181.124 100.189 180.167 99.6973C179.219 99.2051 178.499 98.5807 178.007 97.8242C177.523 97.0586 177.282 96.2747 177.282 95.4727H181.014C181.033 96.0104 181.169 96.4434 181.425 96.7715C181.689 97.0996 182.022 97.3366 182.423 97.4824C182.833 97.6283 183.275 97.7012 183.749 97.7012C184.259 97.7012 184.683 97.6328 185.02 97.4961C185.357 97.3503 185.613 97.1589 185.786 96.9219C185.968 96.6758 186.059 96.3932 186.059 96.0742ZM199.633 100.436C198.484 100.436 197.454 100.253 196.543 99.8887C195.631 99.515 194.857 99 194.219 98.3438C193.59 97.6875 193.107 96.9264 192.769 96.0605C192.432 95.1855 192.264 94.2559 192.264 93.2715V92.7246C192.264 91.6035 192.423 90.5781 192.742 89.6484C193.061 88.7188 193.517 87.9121 194.109 87.2285C194.711 86.5449 195.44 86.0208 196.297 85.6562C197.153 85.2826 198.12 85.0957 199.195 85.0957C200.243 85.0957 201.173 85.2689 201.984 85.6152C202.795 85.9616 203.474 86.4538 204.021 87.0918C204.577 87.7298 204.997 88.4954 205.279 89.3887C205.562 90.2728 205.703 91.2572 205.703 92.3418V93.9824H193.945V91.3574H201.834V91.0566C201.834 90.5098 201.734 90.0221 201.533 89.5938C201.342 89.1562 201.05 88.8099 200.658 88.5547C200.266 88.2995 199.765 88.1719 199.154 88.1719C198.635 88.1719 198.188 88.2858 197.814 88.5137C197.441 88.7415 197.135 89.0605 196.898 89.4707C196.67 89.8809 196.497 90.3639 196.379 90.9199C196.269 91.4668 196.215 92.0684 196.215 92.7246V93.2715C196.215 93.8639 196.297 94.4108 196.461 94.9121C196.634 95.4134 196.875 95.8464 197.185 96.2109C197.504 96.5755 197.887 96.8581 198.334 97.0586C198.79 97.2591 199.305 97.3594 199.879 97.3594C200.59 97.3594 201.25 97.2227 201.861 96.9492C202.481 96.6667 203.014 96.2428 203.461 95.6777L205.375 97.7559C205.065 98.2025 204.641 98.6309 204.103 99.041C203.575 99.4512 202.937 99.7884 202.189 100.053C201.442 100.308 200.59 100.436 199.633 100.436Z" fill="white"/>
</svg>
